<svg xmlns="http://www.w3.org/2000/svg" xmlns:xlink="http://www.w3.org/1999/xlink" fill="none" version="1.1" width="20" height="20" viewBox="0 0 20 20"><defs><clipPath id="master_svg0_119_33489"><rect x="0" y="0" width="20" height="20" rx="0"/></clipPath></defs><g clip-path="url(#master_svg0_119_33489)"><path d="M15.833332507720947,5.341666507720947C15.833332507720947,5.341666507720947,14.658333507720947,4.166666507720947,14.658333507720947,4.166666507720947C14.658333507720947,4.166666507720947,9.999999507720947,8.824999807720946,9.999999507720947,8.824999807720946C9.999999507720947,8.824999807720946,5.341666507720947,4.166666507720947,5.341666507720947,4.166666507720947C5.341666507720947,4.166666507720947,4.166666507720947,5.341666507720947,4.166666507720947,5.341666507720947C4.166666507720947,5.341666507720947,8.824999807720946,9.999999507720947,8.824999807720946,9.999999507720947C8.824999807720946,9.999999507720947,4.166666507720947,14.658333507720947,4.166666507720947,14.658333507720947C4.166666507720947,14.658333507720947,5.341666507720947,15.833332507720947,5.341666507720947,15.833332507720947C5.341666507720947,15.833332507720947,9.999999507720947,11.174999707720946,9.999999507720947,11.174999707720946C9.999999507720947,11.174999707720946,14.658333507720947,15.833332507720947,14.658333507720947,15.833332507720947C14.658333507720947,15.833332507720947,15.833332507720947,14.658333507720947,15.833332507720947,14.658333507720947C15.833332507720947,14.658333507720947,11.174999707720946,9.999999507720947,11.174999707720946,9.999999507720947C11.174999707720946,9.999999507720947,15.833332507720947,5.341666507720947,15.833332507720947,5.341666507720947Z" fill="#727272" fill-opacity="1"/></g></svg>