<svg xmlns="http://www.w3.org/2000/svg" xmlns:xlink="http://www.w3.org/1999/xlink" fill="none" version="1.1" width="24" height="24" viewBox="0 0 24 24"><path d="M9.5253448,21.549541L11.6503553,18.720707L21.000002,18.7206Q21.25,18.720596,21.25,18.4706L21.25,4.0000004Q21.25,3.75,21,3.75L4.0000007,3.75Q3.75,3.75,3.75,4.0000001L3.75,18.470612Q3.75,18.720608,3.9999938999999998,18.720613L7.7500181,18.720703L7.7499819,20.220703L3.9999577,20.220613Q2.25,20.220572,2.25,18.470612L2.25,4.0000001Q2.25,2.25,4.0000007,2.25L21,2.25Q22.75,2.25000011920929,22.75,4.0000004L22.75,18.4706Q22.75,20.220581,21.000021,20.2206L12.399643,20.220699L10.7246552,22.450459L9.5253448,21.549541Z" fill-rule="evenodd" fill="#262626" fill-opacity="1"/><path d="M17,11.75L6.5,11.75L6.5,10.25L17,10.25L17,11.75Z" fill-rule="evenodd" fill="#262626" fill-opacity="1"/></svg>