<svg xmlns="http://www.w3.org/2000/svg" xmlns:xlink="http://www.w3.org/1999/xlink" fill="none" version="1.1" width="98.36376953125" height="24" viewBox="0 0 98.36376953125 24"><path d="M20.377033,6.4340067L3.3775051,6.4340067C3.110955,6.4340067,2.8952622,6.2183118,2.8952622,5.953517L2.8952622,0.48049006L5.2731609,0.48049006L5.2731609,4.0578613L10.68832,4.0578613L10.68832,0L13.064464,0L13.064464,4.0578613L18.483128,4.0578613L18.483128,0.48049006L20.859276,0.48049006L20.859276,5.9517627C20.859276,6.2183118,20.643581,6.4340067,20.377033,6.4340067ZM68.548737,11.145985L73.448341,11.145985L73.448341,8.9960556L60.496151,8.9960556C60.796017,8.5120583,61.071331,7.9964967,61.322098,7.4458618L70.800377,7.4458618L70.800377,5.3695836L62.197144,5.3695836C62.381275,4.8522677,62.563656,4.319169,62.747787,3.7685354L72.050697,3.7685354L72.050697,1.6940097L63.273869,1.6940097L63.519375,0.099975549L61.055546,0.099975549Q60.885448,1.1696801,60.774975,1.6940097L52.273457,1.6940097L52.273457,3.7702892L60.224335,3.7702892C60.073528,4.3033867,59.891148,4.8364849,59.673695,5.3713374L53.346664,5.3713374L53.346664,7.4458618L58.747791,7.4458618C58.463703,7.97896,58.148056,8.4962759,57.797329,8.9960556L50.945965,8.9960556L50.945965,11.145985L56.071777,11.145985C54.537361,12.813672,52.62067,14.155187,50.319927,15.17228L51.645657,17.197704C51.657932,17.190691,51.670208,17.185431,51.682484,17.178415L51.694756,17.197704C54.695194,15.680829,57.153751,13.664174,59.07045,11.145985L65.89727,11.145985C67.363281,13.446726,69.748207,15.28802,73.0485,16.671621L74.074371,14.546241C71.575485,13.697494,69.849922,12.562905,68.548737,11.145985ZM27.093317,0.45593247L46.931942,0.45593247C47.19849,0.45593247,47.414188,0.67162633,47.414188,0.93817633L47.414188,23.128395C47.414188,23.394945,47.19849,23.610638,46.931942,23.610638L27.093317,23.610638C26.826765,23.610638,26.611074,23.394945,26.611074,23.128395L26.611074,0.93817633C26.611074,0.67162633,26.826765,0.45593247,27.093317,0.45593247ZM95.913986,20.77866L95.913986,6.2780318L98.363777,6.2780318L98.363777,22.732185C98.363777,22.974186,98.167381,23.170589,97.925377,23.170589L77.422134,23.14604C77.180138,23.14604,76.983734,22.949635,76.983734,22.707636L76.983734,6.2780318L79.435287,6.2780318L79.435287,20.77866L86.462013,20.77866L86.462013,0.49987769L88.911819,0.49987769L88.736458,20.77866L95.913986,20.77866ZM28.987223,21.232744L45.036289,21.232744L45.036289,2.8338318L28.987223,2.8338318L28.987223,21.232744ZM36.934536,11.337164C34.959969,12.431417,32.762691,13.23282,30.486502,13.902699L29.644766,11.859739C31.540419,11.472192,33.346642,10.886484,34.928398,10.151721C34.228706,9.6852598,33.602669,9.2065229,33.052032,8.7225256C32.580315,9.1486549,32.078781,9.5467243,31.540422,9.8904324L30.233978,8.2736006C32.159447,6.9057822,33.548309,5.1854877,34.498764,3.4178455L36.508404,4.2648411C36.385654,4.4875498,36.250626,4.7190266,36.106831,4.9557648L41.139698,4.9557648L42.191864,6.7847829C41.239655,8.1245441,40.091042,9.2240582,38.807392,10.151721C40.538212,10.946107,42.430359,11.498496,44.380379,11.859739L43.747322,13.902699C41.1134,13.231067,38.837208,12.34023,36.934536,11.337164ZM34.710957,6.9426084C34.635544,7.0390568,34.561897,7.1355052,34.482983,7.2302012C35.205471,7.940414,36.003365,8.5611935,36.860882,9.101306C37.8885,8.450716,38.751274,7.72472,39.37907,6.9426084L34.710957,6.9426084ZM20.531305,8.6102924L20.531305,17.993876C20.531305,19.71417,21.78689,21.073219,23.654488,21.241568L23.654488,23.838669C20.171812,23.41254,18.155157,21.073219,18.155157,18.286728L18.155157,10.504194L5.5922728,10.504194L5.5922728,13.320497C5.5922728,18.469105,4.1420326,21.948275,1.9833345,24L0,22.569054C2.2025404,20.450687,3.2161262,18.344599,3.2161262,13.841319L3.2161262,8.6102924C3.2161262,8.3437433,3.4318187,8.1280479,3.6983688,8.1280479L20.049059,8.1280479C20.315607,8.1280479,20.531305,8.3437433,20.531305,8.6102924ZM16.401463,12.180488L14.228736,11.242304C13.646537,12.508414,12.936322,13.688595,12.11037,14.793372C10.865305,13.653523,9.5904284,12.601355,8.4768848,11.857823L6.9863124,13.562337C7.940279,14.202405,9.250227,15.280879,10.616293,16.557507C9.2625036,17.969166,7.6649642,19.219492,5.7780733,20.285688L7.2125278,22.226938C9.1555328,21.134439,10.849524,19.803446,12.326066,18.233963C13.457145,19.398363,14.540877,20.631151,15.40541,21.797304L17.208124,20.245358C16.496155,19.266842,15.252845,17.867458,13.830665,16.443523C14.79866,15.158124,15.657931,13.746464,16.401463,12.180488ZM67.310623,13.969237L68.887108,15.251126C68.354019,16.042007,67.833199,16.769756,67.361465,17.353712C69.441254,18.39711,71.449127,19.589569,72.815201,20.615433L71.540329,22.62332C69.348305,21.004732,66.44783,19.347569,63.720963,18.176153L63.720963,20.55756C63.720963,22.668911,62.716145,23.726341,60.706501,23.726341L58.330357,23.726341L57.609631,21.304602L60.1208,21.304602C60.860828,21.304602,61.300991,20.878471,61.300991,19.950811L61.300991,17.958706C58.810856,20.173517,55.901611,21.788597,52.589039,22.700478L51.670147,20.468124C55.564915,19.501884,58.733692,17.49049,61.300991,14.644376L61.300991,12.247188L63.722729,12.247188L63.722729,15.719342C64.289146,15.938544,64.878357,16.185806,65.476334,16.454107C66.053276,15.791241,66.660027,14.933723,67.310623,13.969237ZM33.294052,15.077592L34.121758,13.011836C36.378658,13.309951,38.561909,13.802715,40.792503,14.423493L40.15419,16.56641C38.074402,15.933353,35.617592,15.421299,33.294052,15.077592ZM58.81813,16.170135C58.269245,15.507268,57.883453,15.074126,56.975082,14.406001L55.416119,15.72121C56.327999,16.422655,56.664684,16.76461,57.266178,17.455534L58.81813,16.170135ZM41.541313,20.51906C37.783318,19.393238,34.577717,18.784737,31.221298,18.181496L32.012177,16.15081C35.519405,16.673388,38.651356,17.383602,42.184887,18.472595L41.541313,20.51906Z" fill-rule="evenodd" fill="#FFFFFF" fill-opacity="1"/></svg>