<svg xmlns="http://www.w3.org/2000/svg" xmlns:xlink="http://www.w3.org/1999/xlink" fill="none" version="1.1" width="24" height="24" viewBox="0 0 24 24"><defs><clipPath id="master_svg0_119_33481"><rect x="0" y="0" width="24" height="24" rx="0"/></clipPath></defs><g clip-path="url(#master_svg0_119_33481)"><path d="M19,6.41C19,6.41,17.59,5,17.59,5C17.59,5,12,10.5900002,12,10.5900002C12,10.5900002,6.41,5,6.41,5C6.41,5,5,6.41,5,6.41C5,6.41,10.5900002,12,10.5900002,12C10.5900002,12,5,17.59,5,17.59C5,17.59,6.41,19,6.41,19C6.41,19,12,13.4099998,12,13.4099998C12,13.4099998,17.59,19,17.59,19C17.59,19,19,17.59,19,17.59C19,17.59,13.4099998,12,13.4099998,12C13.4099998,12,19,6.41,19,6.41Z" fill="#262626" fill-opacity="1"/></g></svg>