<svg xmlns="http://www.w3.org/2000/svg" xmlns:xlink="http://www.w3.org/1999/xlink" fill="none" version="1.1" width="24" height="24" viewBox="0 0 24 24"><path d="M15.644259028335572,7.378790367614746L13.140884028335572,1.787097637614746Q12.809933028335571,1.047865867614746,12.000000028335572,1.047865867614746Q11.190067528335572,1.047865927219391,10.859116828335571,1.787097927614746L8.35574272833557,7.378790367614746L2.463959928335571,8.144010567614746Q1.6875267283355713,8.244853067614745,1.4393917623355712,8.987448667614746Q1.1912571483355712,9.730043367614746,1.7510984283355713,10.277396167614747L6.123403328335571,14.552167867614745L4.993444728335572,20.676146867614747Q4.8483042283355715,21.462759867614746,5.501750228335571,21.924103867614747Q6.155197828335571,22.385447867614747,6.847863428335572,21.985392867614745L12.00000202833557,19.009737867614746L17.15213602833557,21.985392867614745Q17.844803028335573,22.385447867614747,18.49824902833557,21.924105867614745Q19.151697028335573,21.462761867614745,19.00655602833557,20.676146867614747L17.876595028335572,14.552166867614746L22.24890202833557,10.277395267614747Q22.80874302833557,9.730042467614746,22.560608028335572,8.987447767614746Q22.312474028335572,8.244852067614746,21.53604002833557,8.144009567614745L15.644259028335572,7.378790367614746ZM12.000000028335572,2.9096901676147464L14.33238502833557,8.119450567614745Q14.61832302833557,8.758141967614746,15.31227202833557,8.848271367614746L20.83175502833557,9.565136867614745L16.732716028335574,13.572736867614745Q16.25647002833557,14.038358867614747,16.377324028335572,14.693346867614746L17.43313802833557,20.415482867614745L12.625169028335572,17.638603867614748Q12.000000028335572,17.277531867614748,11.37483102833557,17.638601867614746L6.566860928335571,20.415482867614745L7.622674728335571,14.693346867614746Q7.743529128335571,14.038358867614747,7.267282728335571,13.572736867614745L3.1682458283355714,9.565137867614746L8.687728128335571,8.848271367614746Q9.38167692833557,8.758141967614746,9.667616128335572,8.119450567614745L12.000000028335572,2.9096901676147464Z" fill-rule="evenodd" fill="#262626" fill-opacity="1"/></svg>