<svg xmlns="http://www.w3.org/2000/svg" xmlns:xlink="http://www.w3.org/1999/xlink" fill="none" version="1.1" width="24" height="24" viewBox="0 0 24 24"><g><path d="M3.190227288644409,13.187278687973022L3.353248788644409,13.350299687973022L3.353248788644409,13.352666687973022L3.353003488644409,13.352222687973022L3.353248788644409,13.352666687973022L10.70900988864441,20.70842768797302C10.71813558864441,20.717553687973023,10.727351888644408,20.726529687973024,10.736658788644409,20.735356687973024C10.752192288644409,20.750093687973024,10.76725358864441,20.764306687973022,10.782394188644409,20.779447687973022C11.30640388864441,21.30345668797302,12.15599418864441,21.30345668797302,12.68000518864441,20.779445687973023L20.10277218864441,13.356677687973022C20.10383718864441,13.355612687973023,20.10383718864441,13.353886687973022,20.10277218864441,13.352820687973022C20.10170818864441,13.351755687973023,20.10170818864441,13.350029687973022,20.10277218864441,13.348963687973022L20.26713218864441,13.184604687973023C22.57941118864441,10.872325687973023,22.57941118864441,7.123380387973023,20.26713218864441,4.811101687973022C17.954854188644408,2.4988224479730223,14.20590818864441,2.4988229279730225,11.893630188644408,4.811101687973022L11.890955188644408,4.813776687973022C11.80059318864441,4.904138287973023,11.654090188644409,4.904138287973023,11.563729188644409,4.813777187973022C9.25145028864441,2.5014984579730224,5.502505988644409,2.5014979879730226,3.190227288644409,4.813776687973022C0.8779482886444092,7.126055487973022,0.8779482886444092,10.874999787973023,3.190227288644409,13.187278687973022Z" fill-rule="evenodd" fill="#D33E2C" fill-opacity="1"/></g></svg>