<svg xmlns="http://www.w3.org/2000/svg" xmlns:xlink="http://www.w3.org/1999/xlink" fill="none" version="1.1" width="24" height="24" viewBox="0 0 24 24"><path d="M3.185999823565674,12.916603823638916L3.3490214235656737,13.079625823638915L3.3490219235656737,13.081991823638916L10.704782923565674,20.437751823638916C10.713908623565674,20.446878823638915,10.723125023565673,20.455854823638916,10.732430923565675,20.464681823638916C10.747964423565675,20.479417823638915,10.763026723565673,20.493631823638918,10.778167223565674,20.508772823638918C11.302176923565673,21.032781823638917,12.151767623565673,21.032781823638917,12.675777623565674,20.508770823638915L20.098545623565673,13.086002823638916C20.099609623565673,13.084937823638915,20.099609623565673,13.083211823638916,20.098545623565673,13.082145823638916C20.097481623565674,13.081080823638915,20.097481623565674,13.079354823638916,20.098545623565673,13.078289823638917L20.262905623565675,12.913929823638917C22.575184623565672,10.601650723638915,22.575184623565672,6.852706423638916,20.262905623565675,4.540427723638916C17.950624623565673,2.228148463638916,14.201681623565674,2.228147983638916,11.889402623565674,4.540426723638916L11.886726623565673,4.543102723638916C11.796366623565675,4.633463423638916,11.649862623565674,4.633463423638916,11.559502623565674,4.5431022236389165C9.247223423565675,2.2308235136389163,5.498279123565673,2.230823043638916,3.185999823565674,4.5431022236389165C0.8737212435656738,6.855381023638916,0.8737212435656738,10.604325323638916,3.185999823565674,12.916603823638916ZM4.4781751235656735,12.089825123638915Q4.445111323565674,12.054394223638916,4.409681823565673,12.018965223638917L4.246660223565674,11.855944123638915Q2.951790823565674,10.561074723638917,2.951790823565674,8.729853123638916Q2.951791023565674,6.898631523638916,4.246659723565674,5.603762423638916Q5.541529223565674,4.308892723638916,7.372751723565674,4.308892723638916Q9.203973323565673,4.308892723638916,10.498842723565673,5.603761623638916Q11.110978623565673,6.215899023638916,11.723115623565674,6.215899023638916Q12.335251623565673,6.215899023638916,12.947387623565675,5.603763123638916L12.950063623565674,5.601087123638916Q14.244931623565673,4.306218623638916,16.076153623565673,4.306218123638916Q17.907375623565674,4.306218123638916,19.202244623565672,5.601087123638916Q20.497114623565675,6.895956523638916,20.497112623565673,8.727178123638916Q20.497112623565673,10.558400623638917,19.202244623565672,11.853270023638917L19.037884623565674,12.017629123638915Q18.973865623565676,12.081649323638915,18.917557623565674,12.145671323638917L11.725790623565674,19.337438823638916L4.4781751235656735,12.089825123638915Z" fill-rule="evenodd" fill="#262626" fill-opacity="1"/></svg>