<svg xmlns="http://www.w3.org/2000/svg" xmlns:xlink="http://www.w3.org/1999/xlink" fill="none" version="1.1" width="24" height="24" viewBox="0 0 24 24"><defs><clipPath id="master_svg0_120_33098"><rect x="0" y="0" width="24" height="24" rx="0"/></clipPath></defs><g clip-path="url(#master_svg0_120_33098)"><path d="M6,10C4.8999999800000005,10,4,10.89999998,4,12C4,13.0999999,4.8999999800000005,14,6,14C7.0999999,14,8,13.0999999,8,12C8,10.89999998,7.0999999,10,6,10ZM18,10C16.9,10,16,10.89999998,16,12C16,13.0999999,16.9,14,18,14C19.1,14,20,13.0999999,20,12C20,10.89999998,19.1,10,18,10ZM12,10C10.9000001,10,10,10.89999998,10,12C10,13.0999999,10.9000001,14,12,14C13.1000004,14,14,13.0999999,14,12C14,10.89999998,13.1000004,10,12,10Z" fill="#000000" fill-opacity="1"/></g></svg>