<svg xmlns="http://www.w3.org/2000/svg" xmlns:xlink="http://www.w3.org/1999/xlink" fill="none" version="1.1" width="20" height="20" viewBox="0 0 20 20"><defs><clipPath id="master_svg0_119_35455/5_4127"><rect x="0" y="0" width="20" height="20" rx="0"/></clipPath></defs><g clip-path="url(#master_svg0_119_35455/5_4127)"><path d="M14.704166095367432,5.291666553860473C13.495833095367432,4.0833331338604735,11.837500095367432,3.3333332538604736,9.995832895367432,3.3333332538604736C6.312499795367431,3.3333332538604736,3.3375000953674316,6.316666353860473,3.3375000953674316,9.999999753860473C3.3375000953674316,13.683332253860474,6.312499795367431,16.666666253860473,9.995832895367432,16.666666253860473C13.104165595367432,16.666666253860473,15.695833095367432,14.541666253860473,16.437499095367432,11.666666253860473C16.437499095367432,11.666666253860473,14.704166095367432,11.666666253860473,14.704166095367432,11.666666253860473C14.020832095367432,13.608333253860474,12.170833095367431,14.999999253860473,9.995832895367432,14.999999253860473C7.237499995367432,14.999999253860473,4.995833195367432,12.758332453860474,4.995833195367432,9.999999753860473C4.995833195367432,7.241666553860473,7.237499995367432,4.999999853860474,9.995832895367432,4.999999853860474C11.379166095367431,4.999999853860474,12.612498795367431,5.574999853860474,13.512499095367431,6.483333353860473C13.512499095367431,6.483333353860473,10.829166395367432,9.166666253860473,10.829166395367432,9.166666253860473C10.829166395367432,9.166666253860473,16.66250009536743,9.166666253860473,16.66250009536743,9.166666253860473C16.66250009536743,9.166666253860473,16.66250009536743,3.3333332538604736,16.66250009536743,3.3333332538604736C16.66250009536743,3.3333332538604736,14.704166095367432,5.291666553860473,14.704166095367432,5.291666553860473Z" fill="#262626" fill-opacity="1"/></g></svg>