<svg xmlns="http://www.w3.org/2000/svg" xmlns:xlink="http://www.w3.org/1999/xlink" fill="none" version="1.1" width="24" height="24" viewBox="0 0 24 24"><path d="M4.6697805,4.66984083515625Q1.9999993,7.33962153515625,1.9999993,11.11523433515625Q2,14.89084803515625,4.6697803,17.56062703515625Q7.3395615,20.23040803515625,11.1151752,20.23040803515625Q14.890788,20.23040803515625,17.560569,17.56062903515625Q20.23035,14.89084903515625,20.23035,11.11523433515625Q20.23035,7.33962153515625,17.56057,4.6698411351562505Q14.890789,2.00006163515625,11.1151762,2.00006163515625Q7.3395605,2.00006103515625,4.6697805,4.66984083515625ZM6.083993899999999,16.146415035156252Q4,14.06242203515625,4,11.11523433515625Q3.9999994,8.16804833515625,6.083993700000001,6.084054435156251Q8.167987799999999,4.00006103515625,11.1151762,4.00006173515625Q14.062363,4.0000615351562505,16.146358,6.084054935156249Q18.23035,8.168047935156249,18.23035,11.11523433515625Q18.23035,14.06242203515625,16.146357000000002,16.146414035156248Q14.062361,18.230408035156252,11.1151752,18.230408035156252Q8.167987799999999,18.230408035156252,6.083993899999999,16.146415035156252Z" fill-rule="evenodd" fill="#262626" fill-opacity="1"/><path d="M20.29268075,21.70695498515625L16.24211204,17.65638661515625L17.65632546,16.24217295515625L21.70689395,20.29274108515625L20.29268075,21.70695498515625Z" fill-rule="evenodd" fill="#262626" fill-opacity="1"/></svg>