<svg xmlns="http://www.w3.org/2000/svg" xmlns:xlink="http://www.w3.org/1999/xlink" fill="none" version="1.1" width="14" height="14" viewBox="0 0 14 14"><path d="M14,1.41C14,1.41,12.59,0,12.59,0C12.59,0,7,5.5900002,7,5.5900002C7,5.5900002,1.41,0,1.41,0C1.41,0,0,1.41,0,1.41C0,1.41,5.5900002,7,5.5900002,7C5.5900002,7,0,12.59,0,12.59C0,12.59,1.41,14,1.41,14C1.41,14,7,8.4099998,7,8.4099998C7,8.4099998,12.59,14,12.59,14C12.59,14,14,12.59,14,12.59C14,12.59,8.4099998,7,8.4099998,7C8.4099998,7,14,1.41,14,1.41Z" fill="#FFFFFF" fill-opacity="1"/></svg>