<svg xmlns="http://www.w3.org/2000/svg" xmlns:xlink="http://www.w3.org/1999/xlink" fill="none" version="1.1" width="24" height="24" viewBox="0 0 24 24"><defs><clipPath id="master_svg0_119_33366"><rect x="0" y="0" width="24" height="24" rx="0"/></clipPath></defs><g clip-path="url(#master_svg0_119_33366)"><path d="M8,11C8,11,11,11,11,11C11,11,11,21,11,21C11,21,13,21,13,21C13,21,13,11,13,11C13,11,16,11,16,11C16,11,12,7,12,7C12,7,8,11,8,11ZM4,3C4,3,4,5,4,5C4,5,20,5,20,5C20,5,20,3,20,3C20,3,4,3,4,3Z" fill="#262626" fill-opacity="1"/></g></svg>