<svg xmlns="http://www.w3.org/2000/svg" xmlns:xlink="http://www.w3.org/1999/xlink" fill="none" version="1.1" width="24" height="24" viewBox="0 0 24 24"><path d="M13.14097725,2.71188802L15.64435225,8.30358075L21.53613325,9.068799949999999Q22.31256725,9.16964245,22.56070125,9.91223815Q22.80883625,10.65483285,22.24899525,11.20218565L17.87668825,15.47695725L19.00664925,21.60093725Q19.15179025,22.38755225,18.49834225,22.84889625Q17.84489625,23.31023825,17.152229249999998,22.91018325L12.00009525,19.93452825L6.84795665,22.91018325Q6.15529105,23.31023825,5.50184345,22.84889425Q4.84839745,22.38755025,4.99353795,21.60093725L6.12349655,15.47695825L1.75119165,11.20218655Q1.1913503699999999,10.65483375,1.439484984,9.91223905Q1.68761995,9.169643449999999,2.46405315,9.06880095L8.35583595,8.30358075L10.85921005,2.71188831Q11.19016075,1.97265625,12.00009325,1.97265625Q12.81002625,1.97265625,13.14097725,2.71188802Z" fill-rule="evenodd" fill="#FFBC37" fill-opacity="1"/></svg>