<svg xmlns="http://www.w3.org/2000/svg" xmlns:xlink="http://www.w3.org/1999/xlink" fill="none" version="1.1" width="24" height="24" viewBox="0 0 24 24"><defs><clipPath id="master_svg0_119_33309"><rect x="0" y="0" width="24" height="24" rx="0"/></clipPath></defs><g clip-path="url(#master_svg0_119_33309)"><path d="M19,5C19,5,19,19,19,19C19,19,5,19,5,19C5,19,5,5,5,5C5,5,19,5,19,5ZM19,3C19,3,5,3,5,3C3.89999998,3,3,3.89999998,3,5C3,5,3,19,3,19C3,20.1,3.89999998,21,5,21C5,21,19,21,19,21C20.1,21,21,20.1,21,19C21,19,21,5,21,5C21,3.89999998,20.1,3,19,3ZM14.14,11.8599997C14.14,11.8599997,11.1400003,15.73,11.1400003,15.73C11.1400003,15.73,9,13.14,9,13.14C9,13.14,6,17,6,17C6,17,18,17,18,17C18,17,14.14,11.8599997,14.14,11.8599997Z" fill="#262626" fill-opacity="1"/></g></svg>