<svg xmlns="http://www.w3.org/2000/svg" xmlns:xlink="http://www.w3.org/1999/xlink" fill="none" version="1.1" width="24" height="24" viewBox="0 0 24 24"><defs><clipPath id="master_svg0_119_33621"><rect x="0" y="0" width="24" height="24" rx="0"/></clipPath></defs><g clip-path="url(#master_svg0_119_33621)"><path d="M14,2C14,2,6,2,6,2C4.8999999800000005,2,4.010000229,2.89999998,4.010000229,4C4.010000229,4,4,20,4,20C4,21.1,4.88999975,22,5.9899998,22C5.9899998,22,18,22,18,22C19.1,22,20,21.1,20,20C20,20,20,8,20,8C20,8,14,2,14,2ZM6,20C6,20,6,4,6,4C6,4,13,4,13,4C13,4,13,9,13,9C13,9,18,9,18,9C18,9,18,20,18,20C18,20,6,20,6,20Z" fill="#262626" fill-opacity="1"/></g></svg>