<svg xmlns="http://www.w3.org/2000/svg" xmlns:xlink="http://www.w3.org/1999/xlink" fill="none" version="1.1" width="24" height="24" viewBox="0 0 24 24"><defs><clipPath id="master_svg0_119_33254"><rect x="0" y="0" width="24" height="24" rx="0"/></clipPath></defs><g clip-path="url(#master_svg0_119_33254)"><path d="M3,18C3,18,21,18,21,18C21,18,21,16,21,16C21,16,3,16,3,16C3,16,3,18,3,18ZM3,13C3,13,21,13,21,13C21,13,21,11,21,11C21,11,3,11,3,11C3,11,3,13,3,13ZM3,6C3,6,3,8,3,8C3,8,21,8,21,8C21,8,21,6,21,6C21,6,3,6,3,6Z" fill="#262626" fill-opacity="1"/></g></svg>