<svg xmlns="http://www.w3.org/2000/svg" xmlns:xlink="http://www.w3.org/1999/xlink" fill="none" version="1.1" width="24" height="24" viewBox="0 0 24 24"><defs><clipPath id="master_svg0_119_33170"><rect x="0" y="0" width="24" height="24" rx="0"/></clipPath></defs><g clip-path="url(#master_svg0_119_33170)"><path d="M16,13C16,13,13,13,13,13C13,13,13,3,13,3C13,3,11,3,11,3C11,3,11,13,11,13C11,13,8,13,8,13C8,13,12,17,12,17C12,17,16,13,16,13ZM4,19C4,19,4,21,4,21C4,21,20,21,20,21C20,21,20,19,20,19C20,19,4,19,4,19Z" fill="#262626" fill-opacity="1"/></g></svg>