<svg xmlns="http://www.w3.org/2000/svg" xmlns:xlink="http://www.w3.org/1999/xlink" fill="none" version="1.1" width="24" height="24" viewBox="0 0 24 24"><defs><clipPath id="master_svg0_119_32835"><rect x="0" y="0" width="24" height="24" rx="0"/></clipPath></defs><g clip-path="url(#master_svg0_119_32835)"><path d="M21,3C21,3,3,3,3,3C1.89999998,3,1,3.89999998,1,5C1,5,1,19,1,19C1,20.1,1.89999998,21,3,21C3,21,21,21,21,21C22.1,21,23,20.1,23,19C23,19,23,5,23,5C23,3.89999998,22.1,3,21,3ZM21,19C21,19,3,19,3,19C3,19,3,5,3,5C3,5,21,5,21,5C21,5,21,19,21,19Z" fill="#262626" fill-opacity="1"/><path d="M10,16L16,12L10,8L10,16Z" fill="#262626" fill-opacity="1"/></g></svg>